<svg width="221" height="55" viewBox="0 0 221 55" fill="none" xmlns="http://www.w3.org/2000/svg">
<path d="M3.042 33V8.844H13.5C15.456 8.844 17.076 9.132 18.36 9.708C19.644 10.272 20.604 11.046 21.24 12.03C21.888 13.002 22.212 14.106 22.212 15.342C22.212 16.674 21.828 17.802 21.06 18.726C20.304 19.65 19.308 20.322 18.072 20.742C18.9 20.958 19.656 21.288 20.34 21.732C21.024 22.176 21.57 22.764 21.978 23.496C22.398 24.216 22.608 25.11 22.608 26.178C22.608 26.886 22.476 27.636 22.212 28.428C21.948 29.22 21.486 29.964 20.826 30.66C20.166 31.344 19.248 31.908 18.072 32.352C16.896 32.784 15.396 33 13.572 33H3.042ZM8.802 27.96H13.392C14.364 27.96 15.102 27.78 15.606 27.42C16.11 27.048 16.362 26.514 16.362 25.818C16.362 25.122 16.122 24.564 15.642 24.144C15.174 23.724 14.424 23.514 13.392 23.514H8.802V27.96ZM8.802 13.83V18.438H13.248C14.352 18.438 15.138 18.228 15.606 17.808C16.074 17.388 16.308 16.842 16.308 16.17C16.308 15.522 16.074 14.97 15.606 14.514C15.15 14.058 14.376 13.83 13.284 13.83H8.802ZM24.4541 33V8.844H40.6001V13.83H30.2141V18.474H39.9521V23.478H30.2141V27.96H40.6001V33H24.4541ZM41.2591 33L49.3951 8.844H56.7211L64.4071 33H58.3411L57.0271 28.752H48.6931L47.3791 33H41.2591ZM50.1511 24.486H55.7131L52.9771 15.648L50.1511 24.486ZM65.0087 8.844H70.7687V23.496C70.7687 25.212 71.2067 26.448 72.0827 27.204C72.9587 27.96 74.0567 28.338 75.3767 28.338C76.7207 28.338 77.8307 27.96 78.7067 27.204C79.5947 26.448 80.0387 25.212 80.0387 23.496V8.844H85.7807V23.496C85.7807 25.536 85.3787 27.312 84.5747 28.824C83.7707 30.336 82.5947 31.506 81.0467 32.334C79.4987 33.162 77.6087 33.576 75.3767 33.576C73.1447 33.576 71.2547 33.162 69.7067 32.334C68.1707 31.506 67.0007 30.336 66.1967 28.824C65.4047 27.312 65.0087 25.536 65.0087 23.496V8.844ZM85.7272 13.83V8.844H105.617V13.83H97.2832L98.5792 12.534V33H92.8192V12.534L94.1152 13.83H85.7272ZM103.132 8.844H109.9L114.544 17.898H113.608L118.558 8.844H125.308L116.848 22.974V33H111.124V22.974L103.132 8.844ZM138.267 8.844V27.96H147.393V33H132.507V8.844H138.267ZM158.354 33.576C156.062 33.576 154.058 33.096 152.342 32.136C150.638 31.164 149.312 29.736 148.364 27.852C147.416 25.956 146.942 23.622 146.942 20.85C146.942 18.006 147.416 15.66 148.364 13.812C149.312 11.952 150.638 10.572 152.342 9.672C154.058 8.76 156.062 8.304 158.354 8.304C160.67 8.304 162.686 8.778 164.402 9.726C166.13 10.674 167.468 12.078 168.416 13.938C169.364 15.798 169.838 18.102 169.838 20.85C169.838 23.67 169.364 26.028 168.416 27.924C167.468 29.808 166.13 31.224 164.402 32.172C162.686 33.108 160.67 33.576 158.354 33.576ZM158.354 28.41C160.034 28.41 161.378 27.75 162.386 26.43C163.394 25.098 163.898 23.226 163.898 20.814C163.898 18.546 163.394 16.758 162.386 15.45C161.378 14.13 160.034 13.47 158.354 13.47C156.722 13.47 155.402 14.13 154.394 15.45C153.386 16.758 152.882 18.558 152.882 20.85C152.882 23.238 153.386 25.098 154.394 26.43C155.402 27.75 156.722 28.41 158.354 28.41ZM181.454 33.576C179.162 33.576 177.158 33.096 175.442 32.136C173.738 31.164 172.412 29.736 171.464 27.852C170.516 25.956 170.042 23.622 170.042 20.85C170.042 18.006 170.516 15.66 171.464 13.812C172.412 11.952 173.738 10.572 175.442 9.672C177.158 8.76 179.162 8.304 181.454 8.304C183.77 8.304 185.786 8.778 187.502 9.726C189.23 10.674 190.568 12.078 191.516 13.938C192.464 15.798 192.938 18.102 192.938 20.85C192.938 23.67 192.464 26.028 191.516 27.924C190.568 29.808 189.23 31.224 187.502 32.172C185.786 33.108 183.77 33.576 181.454 33.576ZM181.454 28.41C183.134 28.41 184.478 27.75 185.486 26.43C186.494 25.098 186.998 23.226 186.998 20.814C186.998 18.546 186.494 16.758 185.486 15.45C184.478 14.13 183.134 13.47 181.454 13.47C179.822 13.47 178.502 14.13 177.494 15.45C176.486 16.758 175.982 18.558 175.982 20.85C175.982 23.238 176.486 25.098 177.494 26.43C178.502 27.75 179.822 28.41 181.454 28.41ZM208.677 8.844H216.543L200.109 25.548V17.826L208.677 8.844ZM204.843 18.6L217.227 33H209.865L200.919 22.362L204.843 18.6ZM194.637 8.844H200.433V33H194.637V8.844Z" fill="#473198"/>
<path d="M3.472 51.168C3.108 51.168 2.78133 51.098 2.492 50.958C2.20267 50.818 1.974 50.608 1.806 50.328C1.638 50.048 1.554 49.698 1.554 49.278V42.446H2.632V49.25C2.632 49.9407 2.954 50.286 3.598 50.286C3.78933 50.286 3.97367 50.265 4.151 50.223C4.333 50.181 4.536 50.118 4.76 50.034L4.914 50.818C4.676 50.9207 4.438 51.0047 4.2 51.07C3.96667 51.1353 3.724 51.168 3.472 51.168ZM0.476 45.064V44.308H4.746V45.064H0.476ZM11.4377 51V47.066C11.4377 46.4267 11.2837 45.9413 10.9757 45.61C10.6723 45.274 10.257 45.106 9.72967 45.106C9.32834 45.106 8.98067 45.2157 8.68667 45.435C8.39267 45.6543 8.16634 45.9693 8.00767 46.38C7.84901 46.786 7.76967 47.2713 7.76967 47.836H7.34967C7.34967 47.0567 7.45234 46.3917 7.65767 45.841C7.86301 45.2903 8.16167 44.8703 8.55367 44.581C8.95034 44.287 9.43101 44.14 9.99567 44.14C10.523 44.14 10.9733 44.259 11.3467 44.497C11.7247 44.7303 12.014 45.0663 12.2147 45.505C12.4153 45.9437 12.5157 46.464 12.5157 47.066V51H11.4377ZM6.67767 51V41.452H7.76967V51H6.67767ZM17.4509 51.168C16.8722 51.168 16.3542 51.021 15.8969 50.727C15.4442 50.4283 15.0849 50.0153 14.8189 49.488C14.5576 48.9607 14.4269 48.354 14.4269 47.668C14.4269 46.9353 14.5576 46.3053 14.8189 45.778C15.0802 45.2507 15.4372 44.847 15.8899 44.567C16.3472 44.2823 16.8676 44.14 17.4509 44.14C17.9596 44.14 18.3936 44.2427 18.7529 44.448C19.1122 44.6533 19.4016 44.931 19.6209 45.281C19.8402 45.631 19.9919 46.0277 20.0759 46.471C20.1646 46.9097 20.1902 47.3647 20.1529 47.836H15.3089V47.164H19.4319L19.1099 47.374C19.1239 47.0987 19.1076 46.8233 19.0609 46.548C19.0189 46.2727 18.9372 46.0207 18.8159 45.792C18.6946 45.5587 18.5242 45.372 18.3049 45.232C18.0856 45.092 17.8056 45.022 17.4649 45.022C17.0356 45.022 16.6762 45.1317 16.3869 45.351C16.0976 45.5703 15.8806 45.8597 15.7359 46.219C15.5912 46.5737 15.5189 46.9587 15.5189 47.374V47.822C15.5189 48.2887 15.5889 48.7063 15.7289 49.075C15.8736 49.4437 16.0882 49.7353 16.3729 49.95C16.6576 50.1647 17.0169 50.272 17.4509 50.272C17.8849 50.272 18.2419 50.167 18.5219 49.957C18.8019 49.747 18.9722 49.4367 19.0329 49.026H20.1669C20.0969 49.4693 19.9382 49.852 19.6909 50.174C19.4436 50.4913 19.1286 50.7363 18.7459 50.909C18.3632 51.0817 17.9316 51.168 17.4509 51.168ZM28.7066 51.168C28.2586 51.168 27.8526 51.0513 27.4886 50.818C27.1292 50.5847 26.8422 50.244 26.6276 49.796C26.4176 49.3433 26.3126 48.7927 26.3126 48.144H26.7326C26.7326 48.578 26.8212 48.949 26.9986 49.257C27.1806 49.5603 27.4139 49.7913 27.6986 49.95C27.9832 50.1087 28.2819 50.188 28.5946 50.188C28.9539 50.188 29.2829 50.0853 29.5816 49.88C29.8802 49.6747 30.1182 49.3807 30.2956 48.998C30.4776 48.6153 30.5686 48.158 30.5686 47.626C30.5686 47.1033 30.4799 46.6553 30.3026 46.282C30.1252 45.904 29.8849 45.6147 29.5816 45.414C29.2829 45.2087 28.9492 45.106 28.5806 45.106C28.2632 45.106 27.9622 45.1853 27.6776 45.344C27.3976 45.498 27.1689 45.7267 26.9916 46.03C26.8189 46.3333 26.7326 46.7067 26.7326 47.15H26.3126C26.3126 46.5153 26.4152 45.974 26.6206 45.526C26.8306 45.078 27.1199 44.735 27.4886 44.497C27.8572 44.259 28.2866 44.14 28.7766 44.14C29.3039 44.14 29.7869 44.2823 30.2256 44.567C30.6689 44.847 31.0236 45.2483 31.2896 45.771C31.5556 46.2937 31.6886 46.912 31.6886 47.626C31.6886 48.3447 31.5532 48.97 31.2826 49.502C31.0119 50.0293 30.6502 50.44 30.1976 50.734C29.7449 51.0233 29.2479 51.168 28.7066 51.168ZM25.6406 51V41.452H26.7326V49.432L26.4106 51H25.6406ZM36.2634 51.168C35.6847 51.168 35.1667 51.021 34.7094 50.727C34.2567 50.4283 33.8974 50.0153 33.6314 49.488C33.3701 48.9607 33.2394 48.354 33.2394 47.668C33.2394 46.9353 33.3701 46.3053 33.6314 45.778C33.8927 45.2507 34.2497 44.847 34.7024 44.567C35.1597 44.2823 35.6801 44.14 36.2634 44.14C36.7721 44.14 37.2061 44.2427 37.5654 44.448C37.9247 44.6533 38.2141 44.931 38.4334 45.281C38.6527 45.631 38.8044 46.0277 38.8884 46.471C38.9771 46.9097 39.0027 47.3647 38.9654 47.836H34.1214V47.164H38.2444L37.9224 47.374C37.9364 47.0987 37.9201 46.8233 37.8734 46.548C37.8314 46.2727 37.7497 46.0207 37.6284 45.792C37.5071 45.5587 37.3367 45.372 37.1174 45.232C36.8981 45.092 36.6181 45.022 36.2774 45.022C35.8481 45.022 35.4887 45.1317 35.1994 45.351C34.9101 45.5703 34.6931 45.8597 34.5484 46.219C34.4037 46.5737 34.3314 46.9587 34.3314 47.374V47.822C34.3314 48.2887 34.4014 48.7063 34.5414 49.075C34.6861 49.4437 34.9007 49.7353 35.1854 49.95C35.4701 50.1647 35.8294 50.272 36.2634 50.272C36.6974 50.272 37.0544 50.167 37.3344 49.957C37.6144 49.747 37.7847 49.4367 37.8454 49.026H38.9794C38.9094 49.4693 38.7507 49.852 38.5034 50.174C38.2561 50.4913 37.9411 50.7363 37.5584 50.909C37.1757 51.0817 36.7441 51.168 36.2634 51.168ZM43.5388 51.168C42.8901 51.168 42.3488 51.077 41.9148 50.895C41.4808 50.7083 41.1518 50.454 40.9278 50.132C40.7038 49.8053 40.5848 49.432 40.5708 49.012H41.6208C41.6441 49.4367 41.8145 49.7563 42.1318 49.971C42.4538 50.181 42.8901 50.286 43.4408 50.286C43.7301 50.286 43.9961 50.2393 44.2388 50.146C44.4815 50.0527 44.6751 49.9243 44.8198 49.761C44.9645 49.5977 45.0368 49.4133 45.0368 49.208C45.0368 48.9467 44.9411 48.7413 44.7498 48.592C44.5585 48.4427 44.2528 48.312 43.8328 48.2L42.5308 47.78C41.9661 47.6027 41.5321 47.36 41.2288 47.052C40.9301 46.7393 40.7808 46.366 40.7808 45.932C40.7808 45.3907 41.0188 44.9567 41.4948 44.63C41.9708 44.3033 42.5961 44.14 43.3708 44.14C44.1921 44.14 44.8291 44.308 45.2818 44.644C45.7345 44.98 45.9701 45.4 45.9888 45.904H44.9108C44.8688 45.61 44.7195 45.3883 44.4628 45.239C44.2061 45.085 43.8421 45.008 43.3708 45.008C42.9181 45.008 42.5635 45.1107 42.3068 45.316C42.0548 45.5167 41.9288 45.7407 41.9288 45.988C41.9288 46.45 42.3255 46.7907 43.1188 47.01L44.4488 47.458C45.0228 47.6307 45.4615 47.857 45.7648 48.137C46.0728 48.417 46.2268 48.774 46.2268 49.208C46.2268 49.544 46.1171 49.8613 45.8978 50.16C45.6785 50.4587 45.3681 50.7013 44.9668 50.888C44.5655 51.0747 44.0895 51.168 43.5388 51.168ZM50.5443 51.168C50.1803 51.168 49.8536 51.098 49.5643 50.958C49.2749 50.818 49.0463 50.608 48.8783 50.328C48.7103 50.048 48.6263 49.698 48.6263 49.278V42.446H49.7043V49.25C49.7043 49.9407 50.0263 50.286 50.6703 50.286C50.8616 50.286 51.0459 50.265 51.2233 50.223C51.4053 50.181 51.6083 50.118 51.8323 50.034L51.9863 50.818C51.7483 50.9207 51.5103 51.0047 51.2723 51.07C51.0389 51.1353 50.7963 51.168 50.5443 51.168ZM47.5483 45.064V44.308H51.8183V45.064H47.5483ZM60.1102 51.168C59.6202 51.168 59.1932 51.056 58.8292 50.832C58.4699 50.608 58.1922 50.2813 57.9962 49.852C57.8002 49.418 57.7022 48.8907 57.7022 48.27H58.1642C58.1642 48.6853 58.2505 49.0353 58.4232 49.32C58.5959 49.6047 58.8199 49.8217 59.0952 49.971C59.3752 50.1157 59.6715 50.188 59.9842 50.188C60.3202 50.188 60.6422 50.0923 60.9502 49.901C61.2582 49.705 61.5102 49.418 61.7062 49.04C61.9022 48.662 62.0002 48.1953 62.0002 47.64C62.0002 47.108 61.9092 46.653 61.7272 46.275C61.5499 45.897 61.3095 45.6077 61.0062 45.407C60.7029 45.2063 60.3669 45.106 59.9982 45.106C59.6809 45.106 59.3822 45.183 59.1022 45.337C58.8222 45.491 58.5959 45.7173 58.4232 46.016C58.2505 46.31 58.1642 46.674 58.1642 47.108H57.7022C57.7022 46.4593 57.8095 45.9157 58.0242 45.477C58.2389 45.0337 58.5305 44.7 58.8992 44.476C59.2679 44.252 59.6809 44.14 60.1382 44.14C60.6609 44.14 61.1485 44.28 61.6012 44.56C62.0539 44.84 62.4202 45.2413 62.7002 45.764C62.9802 46.2867 63.1202 46.912 63.1202 47.64C63.1202 48.3773 62.9779 49.0097 62.6932 49.537C62.4132 50.0643 62.0445 50.468 61.5872 50.748C61.1299 51.028 60.6375 51.168 60.1102 51.168ZM57.0722 54.29V44.308H57.9822L58.1642 45.876V54.29H57.0722ZM65.2617 51V41.452H66.3537V51H65.2617ZM73.3295 51L73.1895 49.53V46.66C73.1895 46.058 73.0612 45.6263 72.8045 45.365C72.5478 45.099 72.1628 44.966 71.6495 44.966C71.3602 44.966 71.0965 45.008 70.8585 45.092C70.6252 45.176 70.4385 45.3067 70.2985 45.484C70.1632 45.6567 70.0955 45.8807 70.0955 46.156H68.8775C68.8775 45.6707 68.9965 45.281 69.2345 44.987C69.4725 44.6883 69.7992 44.4737 70.2145 44.343C70.6345 44.2077 71.1128 44.14 71.6495 44.14C72.1628 44.14 72.6178 44.2263 73.0145 44.399C73.4112 44.5717 73.7215 44.847 73.9455 45.225C74.1695 45.5983 74.2815 46.086 74.2815 46.688V51H73.3295ZM71.0475 51.168C70.4968 51.168 70.0418 51.07 69.6825 50.874C69.3232 50.678 69.0548 50.4237 68.8775 50.111C68.7002 49.7983 68.6115 49.4693 68.6115 49.124C68.6115 48.6713 68.7235 48.3027 68.9475 48.018C69.1762 47.7333 69.4865 47.5257 69.8785 47.395C70.2705 47.2597 70.7115 47.192 71.2015 47.192C71.5515 47.192 71.9015 47.227 72.2515 47.297C72.6062 47.367 72.9515 47.4627 73.2875 47.584V48.27C73.0075 48.158 72.6902 48.0693 72.3355 48.004C71.9855 47.9387 71.6635 47.906 71.3695 47.906C70.9215 47.906 70.5435 47.9993 70.2355 48.186C69.9275 48.368 69.7735 48.6807 69.7735 49.124C69.7735 49.4507 69.8902 49.7307 70.1235 49.964C70.3615 50.1973 70.7395 50.314 71.2575 50.314C71.6215 50.314 71.9482 50.23 72.2375 50.062C72.5315 49.8893 72.7625 49.6747 72.9305 49.418C73.1032 49.1613 73.1895 48.9047 73.1895 48.648H73.4555C73.4555 49.096 73.3575 49.5113 73.1615 49.894C72.9702 50.2767 72.6948 50.5847 72.3355 50.818C71.9762 51.0513 71.5468 51.168 71.0475 51.168ZM79.2484 51.168C78.7118 51.168 78.2101 51.0233 77.7434 50.734C77.2814 50.4447 76.9081 50.0363 76.6234 49.509C76.3388 48.9817 76.1964 48.3587 76.1964 47.64C76.1964 46.9027 76.3388 46.2727 76.6234 45.75C76.9081 45.2273 77.2814 44.8283 77.7434 44.553C78.2101 44.2777 78.7118 44.14 79.2484 44.14C79.6264 44.14 79.9648 44.1983 80.2634 44.315C80.5668 44.427 80.8304 44.5833 81.0544 44.784C81.2784 44.9847 81.4628 45.2133 81.6074 45.47C81.7568 45.722 81.8664 45.988 81.9364 46.268L80.8164 46.366C80.6998 45.9787 80.5038 45.673 80.2284 45.449C79.9578 45.2203 79.6264 45.106 79.2344 45.106C78.9031 45.106 78.5904 45.2017 78.2964 45.393C78.0071 45.5797 77.7714 45.862 77.5894 46.24C77.4074 46.6133 77.3164 47.08 77.3164 47.64C77.3164 48.158 77.3981 48.6083 77.5614 48.991C77.7294 49.369 77.9581 49.663 78.2474 49.873C78.5368 50.083 78.8658 50.188 79.2344 50.188C79.7524 50.188 80.1444 50.062 80.4104 49.81C80.6811 49.5533 80.8164 49.1987 80.8164 48.746H81.9364C81.9364 49.2127 81.8268 49.628 81.6074 49.992C81.3881 50.356 81.0754 50.643 80.6694 50.853C80.2681 51.063 79.7944 51.168 79.2484 51.168ZM86.4392 51.168C85.8605 51.168 85.3425 51.021 84.8852 50.727C84.4325 50.4283 84.0732 50.0153 83.8072 49.488C83.5458 48.9607 83.4152 48.354 83.4152 47.668C83.4152 46.9353 83.5458 46.3053 83.8072 45.778C84.0685 45.2507 84.4255 44.847 84.8782 44.567C85.3355 44.2823 85.8558 44.14 86.4392 44.14C86.9478 44.14 87.3818 44.2427 87.7412 44.448C88.1005 44.6533 88.3898 44.931 88.6092 45.281C88.8285 45.631 88.9802 46.0277 89.0642 46.471C89.1528 46.9097 89.1785 47.3647 89.1412 47.836H84.2972V47.164H88.4202L88.0982 47.374C88.1122 47.0987 88.0958 46.8233 88.0492 46.548C88.0072 46.2727 87.9255 46.0207 87.8042 45.792C87.6828 45.5587 87.5125 45.372 87.2932 45.232C87.0738 45.092 86.7938 45.022 86.4532 45.022C86.0238 45.022 85.6645 45.1317 85.3752 45.351C85.0858 45.5703 84.8688 45.8597 84.7242 46.219C84.5795 46.5737 84.5072 46.9587 84.5072 47.374V47.822C84.5072 48.2887 84.5772 48.7063 84.7172 49.075C84.8618 49.4437 85.0765 49.7353 85.3612 49.95C85.6458 50.1647 86.0052 50.272 86.4392 50.272C86.8732 50.272 87.2302 50.167 87.5102 49.957C87.7902 49.747 87.9605 49.4367 88.0212 49.026H89.1552C89.0852 49.4693 88.9265 49.852 88.6792 50.174C88.4318 50.4913 88.1168 50.7363 87.7342 50.909C87.3515 51.0817 86.9198 51.168 86.4392 51.168ZM94.9928 51V43.272C94.9928 42.8287 95.0768 42.467 95.2448 42.187C95.4175 41.9023 95.6462 41.6923 95.9308 41.557C96.2202 41.4217 96.5422 41.354 96.8968 41.354C97.0882 41.354 97.2818 41.368 97.4778 41.396C97.6785 41.424 97.8768 41.466 98.0728 41.522L97.8628 42.39C97.7228 42.334 97.5828 42.292 97.4428 42.264C97.3075 42.236 97.1768 42.222 97.0508 42.222C96.9015 42.222 96.7522 42.25 96.6028 42.306C96.4535 42.362 96.3298 42.467 96.2318 42.621C96.1338 42.775 96.0848 42.9967 96.0848 43.286V51H94.9928ZM93.9008 45.064V44.308H97.4708V45.064H93.9008ZM101.85 51.168C101.248 51.168 100.711 51.035 100.24 50.769C99.773 50.503 99.4043 50.1087 99.1337 49.586C98.863 49.0633 98.7277 48.4193 98.7277 47.654C98.7277 46.884 98.863 46.24 99.1337 45.722C99.4043 45.1993 99.773 44.805 100.24 44.539C100.711 44.273 101.248 44.14 101.85 44.14C102.447 44.14 102.979 44.273 103.446 44.539C103.917 44.805 104.286 45.1993 104.552 45.722C104.822 46.24 104.958 46.884 104.958 47.654C104.958 48.4193 104.822 49.0633 104.552 49.586C104.286 50.1087 103.917 50.503 103.446 50.769C102.979 51.035 102.447 51.168 101.85 51.168ZM101.822 50.216C102.256 50.216 102.624 50.1133 102.928 49.908C103.231 49.698 103.46 49.4017 103.614 49.019C103.772 48.6363 103.852 48.1813 103.852 47.654C103.852 46.856 103.686 46.2283 103.355 45.771C103.023 45.309 102.531 45.078 101.878 45.078C101.439 45.078 101.068 45.183 100.765 45.393C100.466 45.5983 100.237 45.8947 100.079 46.282C99.9247 46.6647 99.8477 47.122 99.8477 47.654C99.8477 48.4427 100.013 49.068 100.345 49.53C100.681 49.9873 101.173 50.216 101.822 50.216ZM107.084 51V44.294H108.176V51H107.084ZM107.84 47.976C107.84 47.1267 107.922 46.422 108.085 45.862C108.248 45.2973 108.486 44.8773 108.799 44.602C109.116 44.322 109.501 44.182 109.954 44.182C110.103 44.182 110.239 44.1937 110.36 44.217C110.486 44.2357 110.612 44.266 110.738 44.308L110.668 45.386C110.537 45.344 110.395 45.309 110.241 45.281C110.087 45.2483 109.949 45.232 109.828 45.232C109.431 45.232 109.112 45.3463 108.869 45.575C108.626 45.799 108.449 46.1163 108.337 46.527C108.23 46.9377 108.176 47.4207 108.176 47.976H107.84ZM124.873 51V47.066C124.873 46.4267 124.719 45.9413 124.411 45.61C124.107 45.274 123.697 45.106 123.179 45.106C122.572 45.106 122.108 45.3417 121.786 45.813C121.464 46.2797 121.303 46.926 121.303 47.752H120.799C120.799 47.15 120.857 46.6227 120.974 46.17C121.095 45.7173 121.27 45.3417 121.499 45.043C121.727 44.7397 122.005 44.5133 122.332 44.364C122.658 44.2147 123.029 44.14 123.445 44.14C123.972 44.14 124.422 44.259 124.796 44.497C125.174 44.7303 125.463 45.0663 125.664 45.505C125.864 45.9437 125.965 46.464 125.965 47.066V51H124.873ZM115.465 51V44.308H116.403L116.529 45.652C116.739 45.1667 117.033 44.7933 117.411 44.532C117.793 44.2707 118.251 44.14 118.783 44.14C119.31 44.14 119.76 44.259 120.134 44.497C120.512 44.7303 120.801 45.0663 121.002 45.505C121.202 45.9437 121.303 46.464 121.303 47.066V51H120.225V47.066C120.225 46.4267 120.071 45.9413 119.763 45.61C119.459 45.274 119.044 45.106 118.517 45.106C118.115 45.106 117.768 45.2157 117.474 45.435C117.18 45.6543 116.953 45.9693 116.795 46.38C116.636 46.786 116.557 47.2713 116.557 47.836V51H115.465ZM130.886 51.168C130.308 51.168 129.79 51.021 129.332 50.727C128.88 50.4283 128.52 50.0153 128.254 49.488C127.993 48.9607 127.862 48.354 127.862 47.668C127.862 46.9353 127.993 46.3053 128.254 45.778C128.516 45.2507 128.873 44.847 129.325 44.567C129.783 44.2823 130.303 44.14 130.886 44.14C131.395 44.14 131.829 44.2427 132.188 44.448C132.548 44.6533 132.837 44.931 133.056 45.281C133.276 45.631 133.427 46.0277 133.511 46.471C133.6 46.9097 133.626 47.3647 133.588 47.836H128.744V47.164H132.867L132.545 47.374C132.559 47.0987 132.543 46.8233 132.496 46.548C132.454 46.2727 132.373 46.0207 132.251 45.792C132.13 45.5587 131.96 45.372 131.74 45.232C131.521 45.092 131.241 45.022 130.9 45.022C130.471 45.022 130.112 45.1317 129.822 45.351C129.533 45.5703 129.316 45.8597 129.171 46.219C129.027 46.5737 128.954 46.9587 128.954 47.374V47.822C128.954 48.2887 129.024 48.7063 129.164 49.075C129.309 49.4437 129.524 49.7353 129.808 49.95C130.093 50.1647 130.452 50.272 130.886 50.272C131.32 50.272 131.677 50.167 131.957 49.957C132.237 49.747 132.408 49.4367 132.468 49.026H133.602C133.532 49.4693 133.374 49.852 133.126 50.174C132.879 50.4913 132.564 50.7363 132.181 50.909C131.799 51.0817 131.367 51.168 130.886 51.168ZM138.148 51.168C137.607 51.168 137.11 51.0233 136.657 50.734C136.204 50.44 135.843 50.0293 135.572 49.502C135.301 48.97 135.166 48.3447 135.166 47.626C135.166 46.912 135.299 46.2937 135.565 45.771C135.831 45.2483 136.183 44.847 136.622 44.567C137.065 44.2823 137.551 44.14 138.078 44.14C138.568 44.14 138.997 44.259 139.366 44.497C139.739 44.735 140.029 45.078 140.234 45.526C140.439 45.974 140.542 46.5153 140.542 47.15H140.122C140.122 46.7067 140.033 46.3333 139.856 46.03C139.683 45.7267 139.457 45.498 139.177 45.344C138.897 45.1853 138.596 45.106 138.274 45.106C137.91 45.106 137.576 45.2087 137.273 45.414C136.974 45.6147 136.734 45.904 136.552 46.282C136.375 46.6553 136.286 47.1033 136.286 47.626C136.286 48.158 136.375 48.6153 136.552 48.998C136.734 49.3807 136.974 49.6747 137.273 49.88C137.576 50.0853 137.91 50.188 138.274 50.188C138.577 50.188 138.869 50.1087 139.149 49.95C139.434 49.7913 139.667 49.5603 139.849 49.257C140.031 48.949 140.122 48.578 140.122 48.144H140.542C140.542 48.7927 140.435 49.3433 140.22 49.796C140.01 50.244 139.723 50.5847 139.359 50.818C139 51.0513 138.596 51.168 138.148 51.168ZM140.304 51L140.122 49.432V41.452H141.214V51H140.304ZM144.669 42.726C144.445 42.726 144.267 42.663 144.137 42.537C144.006 42.4063 143.941 42.236 143.941 42.026C143.941 41.8207 144.006 41.6573 144.137 41.536C144.267 41.4147 144.445 41.354 144.669 41.354C144.893 41.354 145.07 41.4147 145.201 41.536C145.331 41.6573 145.397 41.8207 145.397 42.026C145.397 42.236 145.331 42.4063 145.201 42.537C145.07 42.663 144.893 42.726 144.669 42.726ZM144.123 51V44.294H145.215V51H144.123ZM150.575 51.168C150.038 51.168 149.536 51.0233 149.07 50.734C148.608 50.4447 148.234 50.0363 147.95 49.509C147.665 48.9817 147.523 48.3587 147.523 47.64C147.523 46.9027 147.665 46.2727 147.95 45.75C148.234 45.2273 148.608 44.8283 149.07 44.553C149.536 44.2777 150.038 44.14 150.575 44.14C150.953 44.14 151.291 44.1983 151.59 44.315C151.893 44.427 152.157 44.5833 152.381 44.784C152.605 44.9847 152.789 45.2133 152.934 45.47C153.083 45.722 153.193 45.988 153.263 46.268L152.143 46.366C152.026 45.9787 151.83 45.673 151.555 45.449C151.284 45.2203 150.953 45.106 150.561 45.106C150.229 45.106 149.917 45.2017 149.623 45.393C149.333 45.5797 149.098 45.862 148.916 46.24C148.734 46.6133 148.643 47.08 148.643 47.64C148.643 48.158 148.724 48.6083 148.888 48.991C149.056 49.369 149.284 49.663 149.574 49.873C149.863 50.083 150.192 50.188 150.561 50.188C151.079 50.188 151.471 50.062 151.737 49.81C152.007 49.5533 152.143 49.1987 152.143 48.746H153.263C153.263 49.2127 153.153 49.628 152.934 49.992C152.714 50.356 152.402 50.643 151.996 50.853C151.594 51.063 151.121 51.168 150.575 51.168ZM159.585 51L159.445 49.53V46.66C159.445 46.058 159.317 45.6263 159.06 45.365C158.804 45.099 158.419 44.966 157.905 44.966C157.616 44.966 157.352 45.008 157.114 45.092C156.881 45.176 156.694 45.3067 156.554 45.484C156.419 45.6567 156.351 45.8807 156.351 46.156H155.133C155.133 45.6707 155.252 45.281 155.49 44.987C155.728 44.6883 156.055 44.4737 156.47 44.343C156.89 44.2077 157.369 44.14 157.905 44.14C158.419 44.14 158.874 44.2263 159.27 44.399C159.667 44.5717 159.977 44.847 160.201 45.225C160.425 45.5983 160.537 46.086 160.537 46.688V51H159.585ZM157.303 51.168C156.753 51.168 156.298 51.07 155.938 50.874C155.579 50.678 155.311 50.4237 155.133 50.111C154.956 49.7983 154.867 49.4693 154.867 49.124C154.867 48.6713 154.979 48.3027 155.203 48.018C155.432 47.7333 155.742 47.5257 156.134 47.395C156.526 47.2597 156.967 47.192 157.457 47.192C157.807 47.192 158.157 47.227 158.507 47.297C158.862 47.367 159.207 47.4627 159.543 47.584V48.27C159.263 48.158 158.946 48.0693 158.591 48.004C158.241 47.9387 157.919 47.906 157.625 47.906C157.177 47.906 156.799 47.9993 156.491 48.186C156.183 48.368 156.029 48.6807 156.029 49.124C156.029 49.4507 156.146 49.7307 156.379 49.964C156.617 50.1973 156.995 50.314 157.513 50.314C157.877 50.314 158.204 50.23 158.493 50.062C158.787 49.8893 159.018 49.6747 159.186 49.418C159.359 49.1613 159.445 48.9047 159.445 48.648H159.711C159.711 49.096 159.613 49.5113 159.417 49.894C159.226 50.2767 158.951 50.5847 158.591 50.818C158.232 51.0513 157.803 51.168 157.303 51.168ZM163.152 51V41.452H164.244V51H163.152ZM172.456 51.168C172.092 51.168 171.766 51.098 171.476 50.958C171.187 50.818 170.958 50.608 170.79 50.328C170.622 50.048 170.538 49.698 170.538 49.278V42.446H171.616V49.25C171.616 49.9407 171.938 50.286 172.582 50.286C172.774 50.286 172.958 50.265 173.135 50.223C173.317 50.181 173.52 50.118 173.744 50.034L173.898 50.818C173.66 50.9207 173.422 51.0047 173.184 51.07C172.951 51.1353 172.708 51.168 172.456 51.168ZM169.46 45.064V44.308H173.73V45.064H169.46ZM178.084 51.168C177.482 51.168 176.945 51.035 176.474 50.769C176.007 50.503 175.639 50.1087 175.368 49.586C175.097 49.0633 174.962 48.4193 174.962 47.654C174.962 46.884 175.097 46.24 175.368 45.722C175.639 45.1993 176.007 44.805 176.474 44.539C176.945 44.273 177.482 44.14 178.084 44.14C178.681 44.14 179.213 44.273 179.68 44.539C180.151 44.805 180.52 45.1993 180.786 45.722C181.057 46.24 181.192 46.884 181.192 47.654C181.192 48.4193 181.057 49.0633 180.786 49.586C180.52 50.1087 180.151 50.503 179.68 50.769C179.213 51.035 178.681 51.168 178.084 51.168ZM178.056 50.216C178.49 50.216 178.859 50.1133 179.162 49.908C179.465 49.698 179.694 49.4017 179.848 49.019C180.007 48.6363 180.086 48.1813 180.086 47.654C180.086 46.856 179.92 46.2283 179.589 45.771C179.258 45.309 178.765 45.078 178.112 45.078C177.673 45.078 177.302 45.183 176.999 45.393C176.7 45.5983 176.472 45.8947 176.313 46.282C176.159 46.6647 176.082 47.122 176.082 47.654C176.082 48.4427 176.248 49.068 176.579 49.53C176.915 49.9873 177.407 50.216 178.056 50.216ZM187.868 44.294H188.96V51H187.868V44.294ZM183.122 44.294H184.214V48.466C184.214 49.026 184.35 49.4507 184.62 49.74C184.896 50.0293 185.288 50.174 185.796 50.174C186.216 50.174 186.58 50.062 186.888 49.838C187.201 49.614 187.441 49.306 187.609 48.914C187.782 48.5173 187.868 48.0647 187.868 47.556H188.274C188.274 48.3073 188.165 48.949 187.945 49.481C187.731 50.013 187.425 50.4213 187.028 50.706C186.636 50.986 186.174 51.126 185.642 51.126C185.138 51.126 184.697 51.0327 184.319 50.846C183.941 50.6593 183.647 50.377 183.437 49.999C183.227 49.6163 183.122 49.1333 183.122 48.55V44.294ZM191.795 51V44.294H192.887V51H191.795ZM192.551 47.976C192.551 47.1267 192.633 46.422 192.796 45.862C192.959 45.2973 193.197 44.8773 193.51 44.602C193.827 44.322 194.212 44.182 194.665 44.182C194.814 44.182 194.95 44.1937 195.071 44.217C195.197 44.2357 195.323 44.266 195.449 44.308L195.379 45.386C195.248 45.344 195.106 45.309 194.952 45.281C194.798 45.2483 194.66 45.232 194.539 45.232C194.142 45.232 193.823 45.3463 193.58 45.575C193.337 45.799 193.16 46.1163 193.048 46.527C192.941 46.9377 192.887 47.4207 192.887 47.976H192.551ZM197.469 42.726C197.245 42.726 197.068 42.663 196.937 42.537C196.807 42.4063 196.741 42.236 196.741 42.026C196.741 41.8207 196.807 41.6573 196.937 41.536C197.068 41.4147 197.245 41.354 197.469 41.354C197.693 41.354 197.871 41.4147 198.001 41.536C198.132 41.6573 198.197 41.8207 198.197 42.026C198.197 42.236 198.132 42.4063 198.001 42.537C197.871 42.663 197.693 42.726 197.469 42.726ZM196.923 51V44.294H198.015V51H196.923ZM203.431 51.168C202.783 51.168 202.241 51.077 201.807 50.895C201.373 50.7083 201.044 50.454 200.82 50.132C200.596 49.8053 200.477 49.432 200.463 49.012H201.513C201.537 49.4367 201.707 49.7563 202.024 49.971C202.346 50.181 202.783 50.286 203.333 50.286C203.623 50.286 203.889 50.2393 204.131 50.146C204.374 50.0527 204.568 49.9243 204.712 49.761C204.857 49.5977 204.929 49.4133 204.929 49.208C204.929 48.9467 204.834 48.7413 204.642 48.592C204.451 48.4427 204.145 48.312 203.725 48.2L202.423 47.78C201.859 47.6027 201.425 47.36 201.121 47.052C200.823 46.7393 200.673 46.366 200.673 45.932C200.673 45.3907 200.911 44.9567 201.387 44.63C201.863 44.3033 202.489 44.14 203.263 44.14C204.085 44.14 204.722 44.308 205.174 44.644C205.627 44.98 205.863 45.4 205.881 45.904H204.803C204.761 45.61 204.612 45.3883 204.355 45.239C204.099 45.085 203.735 45.008 203.263 45.008C202.811 45.008 202.456 45.1107 202.199 45.316C201.947 45.5167 201.821 45.7407 201.821 45.988C201.821 46.45 202.218 46.7907 203.011 47.01L204.341 47.458C204.915 47.6307 205.354 47.857 205.657 48.137C205.965 48.417 206.119 48.774 206.119 49.208C206.119 49.544 206.01 49.8613 205.79 50.16C205.571 50.4587 205.261 50.7013 204.859 50.888C204.458 51.0747 203.982 51.168 203.431 51.168ZM217.787 51V47.066C217.787 46.4267 217.633 45.9413 217.325 45.61C217.022 45.274 216.611 45.106 216.093 45.106C215.486 45.106 215.022 45.3417 214.7 45.813C214.378 46.2797 214.217 46.926 214.217 47.752H213.713C213.713 47.15 213.771 46.6227 213.888 46.17C214.009 45.7173 214.184 45.3417 214.413 45.043C214.642 44.7397 214.919 44.5133 215.246 44.364C215.573 44.2147 215.944 44.14 216.359 44.14C216.886 44.14 217.337 44.259 217.71 44.497C218.088 44.7303 218.377 45.0663 218.578 45.505C218.779 45.9437 218.879 46.464 218.879 47.066V51H217.787ZM208.379 51V44.308H209.317L209.443 45.652C209.653 45.1667 209.947 44.7933 210.325 44.532C210.708 44.2707 211.165 44.14 211.697 44.14C212.224 44.14 212.675 44.259 213.048 44.497C213.426 44.7303 213.715 45.0663 213.916 45.505C214.117 45.9437 214.217 46.464 214.217 47.066V51H213.139V47.066C213.139 46.4267 212.985 45.9413 212.677 45.61C212.374 45.274 211.958 45.106 211.431 45.106C211.03 45.106 210.682 45.2157 210.388 45.435C210.094 45.6543 209.868 45.9693 209.709 46.38C209.55 46.786 209.471 47.2713 209.471 47.836V51H208.379Z" fill="#473198"/>
</svg>
